<svg width="20" height="20" viewBox="0 0 20 20" fill="none" xmlns="http://www.w3.org/2000/svg">
<path d="M8.04104 3.56155C8.84456 3.45795 9.66689 3.48424 10.4762 3.64671C12.4264 4.03823 14.1412 5.18842 15.2434 6.84427C16.3456 8.50013 16.7448 10.526 16.3533 12.4762C16.1915 13.2819 15.9003 14.0474 15.4974 14.7461" stroke="white" stroke-width="2" stroke-linecap="round"/>
<path d="M2.59245 3.38867L6.90755 9.86132C6.96354 9.9453 6.96354 10.0547 6.90755 10.1387L2.59245 16.6113C2.48169 16.7775 2.60079 17 2.80047 17H4.19954C4.28313 17 4.36119 16.9582 4.40755 16.8887L7.79199 11.812C7.89095 11.6636 8.10906 11.6636 8.20802 11.812L11.5925 16.8887C11.6388 16.9582 11.7169 17 11.8005 17H13.1995C13.3992 17 13.5183 16.7775 13.4076 16.6113L4.40755 3.11132C4.36119 3.04178 4.28313 3 4.19954 3H2.80047C2.60079 3 2.48169 3.22254 2.59245 3.38867Z" fill="white" stroke="white"/>
<circle cx="15.5" cy="7.5" r="2.5" fill="white"/>
</svg>
